<svg preserveAspectRatio="none" overflow="visible" style="display: block;" width="16" height="16" viewBox="0 0 16 16" fill="none" xmlns="http://www.w3.org/2000/svg">
<g id="football">
<path id="Vector" d="M14.6673 7.99992C14.6673 11.6818 11.6825 14.6666 8.00065 14.6666C4.31875 14.6666 1.33398 11.6818 1.33398 7.99992C1.33398 4.31802 4.31875 1.33325 8.00065 1.33325C11.6825 1.33325 14.6673 4.31802 14.6673 7.99992Z" stroke="white"/>
<path id="Vector_2" d="M7.80448 6.2327C7.92068 6.14476 8.07801 6.14476 8.19421 6.2327L9.69601 7.36942C9.81221 7.45735 9.86081 7.61322 9.81641 7.75555L9.24281 9.59482C9.19841 9.73708 9.07115 9.83342 8.92755 9.83342H7.07115C6.92755 9.83342 6.80028 9.73708 6.75588 9.59482L6.18226 7.75555C6.13789 7.61322 6.1865 7.45735 6.30267 7.36942L7.80448 6.2327Z" stroke="white"/>
<path id="Vector_3" d="M8.00065 5.99992V3.33325M10.0007 7.33325L12.6673 6.33325M9.33398 9.99992L10.6673 11.9999M6.66732 9.66659L5.33398 11.3333M6.00065 7.66659L3.33398 6.99992" stroke="white" stroke-linecap="round" stroke-linejoin="round"/>
<path id="Vector_4" d="M6.00065 1.66675L8.01165 3.08169L10.0007 1.66675M1.33398 8.53328L3.46502 6.95928L2.37097 4.48038M12.9809 12.5688L10.4112 12.1037L9.51098 14.6667M13.3539 4.13065L12.5363 6.25993L14.6673 7.83388M5.3406 14.2707L5.36826 11.4444L2.66952 11.4734" stroke="white" stroke-linejoin="round"/>
</g>
</svg>
